<svg width="20" height="20" viewBox="0 0 20 20" fill="none" xmlns="http://www.w3.org/2000/svg">
<path fill-rule="evenodd" clip-rule="evenodd" d="M16.6857 19.1376L10.1857 12.6376C8.68574 13.6376 5.18611 14.4513 1.18611 10.8513C-1.31389 6.35134 0.685697 2.13765 2.1859 1.35134C2.68602 -0.648654 11.686 -0.648651 12.186 2.85135C13.786 5.25135 13.1859 9.30432 12.6859 11.1376L19.1859 16.6377L16.6857 19.1376ZM2.18574 5.63766C1.9133 9.63766 4.73897 10.971 6.18586 11.1376C10.4856 9.965 10.6423 9.10727 10.6859 7.35135C10.821 7.14697 10.6859 6.13765 10.6859 5.63766C10.6859 3.20454 7.85257 2.47098 6.18586 2.13765C5.5192 2.13765 3.78584 2.43766 2.18574 5.63766Z" fill="black"/>
</svg>
